<?xml version="1.0" standalone="no"?>
<!DOCTYPE svg PUBLIC "-//W3C//DTD SVG 20010904//EN"
 "http://www.w3.org/TR/2001/REC-SVG-20010904/DTD/svg10.dtd">
<svg version="1.0" xmlns="http://www.w3.org/2000/svg"
 width="512.000000pt" height="512.000000pt" viewBox="0 0 512.000000 512.000000"
 preserveAspectRatio="xMidYMid meet">

<g transform="translate(0.000000,512.000000) scale(0.100000,-0.100000)"
fill="#000000" stroke="none">
<path d="M2305 4970 l-220 -128 -3 -274 c-2 -252 -1 -276 15 -290 41 -35 430
-251 453 -251 23 0 411 216 453 251 15 14 17 40 17 281 0 146 -4 271 -8 277
-6 10 -338 206 -419 248 -18 9 -40 16 -50 15 -10 0 -117 -58 -238 -129z m392
-82 c78 -45 139 -86 135 -90 -5 -5 -70 -44 -145 -88 l-137 -79 -133 76 c-72
41 -138 81 -145 87 -10 10 17 29 130 94 79 45 145 82 147 82 3 0 69 -37 148
-82z m-319 -295 l112 -65 0 -170 c0 -93 -4 -168 -8 -166 -5 2 -72 39 -150 83
l-142 80 0 173 0 174 38 -22 c20 -12 88 -51 150 -87z m524 -235 c-9 -9 -281
-168 -288 -168 -2 0 -4 76 -4 169 l0 170 148 85 147 85 3 -166 c1 -92 -1 -170
-6 -175z"/>
<path d="M1655 4115 c-137 -79 -259 -155 -270 -170 -18 -24 -18 -28 -4 -53 28
-51 49 -44 316 109 136 78 256 149 266 157 9 8 17 26 17 39 0 27 -33 63 -57
63 -10 0 -130 -65 -268 -145z"/>
<path d="M3142 4244 c-27 -19 -29 -65 -4 -86 33 -28 509 -298 526 -298 10 0
26 5 37 10 25 14 26 71 2 92 -29 24 -511 298 -525 298 -8 0 -24 -7 -36 -16z"/>
<path d="M570 3969 c-113 -65 -213 -126 -222 -134 -16 -13 -18 -40 -18 -277 0
-145 4 -268 8 -275 14 -22 441 -263 466 -263 28 0 433 230 459 261 15 19 17
48 17 274 0 226 -2 255 -17 274 -28 32 -434 261 -463 260 -14 0 -117 -54 -230
-120z m527 -173 c1 -1 -64 -40 -145 -87 l-148 -85 -147 84 c-81 47 -146 87
-144 88 2 2 68 41 147 87 l144 83 146 -84 c80 -46 146 -85 147 -86z m-464
-211 l117 -67 0 -170 c0 -95 -4 -168 -9 -166 -5 2 -72 39 -150 83 l-140 80 -1
173 0 174 33 -20 c17 -11 85 -50 150 -87z m519 -237 c-9 -9 -281 -168 -288
-168 -2 0 -4 76 -4 169 l0 170 148 85 147 85 3 -166 c1 -92 -1 -170 -6 -175z"/>
<path d="M4062 3970 c-112 -65 -212 -126 -223 -136 -18 -16 -19 -33 -19 -278
0 -144 4 -266 8 -273 13 -21 442 -263 466 -263 25 0 413 217 454 253 22 20 22
24 22 278 0 230 -2 259 -17 278 -29 34 -431 261 -462 260 -14 0 -117 -54 -229
-119z m515 -182 c-6 -4 -73 -43 -147 -86 l-135 -78 -148 85 c-95 55 -143 88
-135 93 7 4 74 42 148 86 l135 78 147 -85 c92 -53 143 -88 135 -93z m-449
-205 l112 -65 0 -170 c0 -93 -4 -168 -8 -166 -5 2 -72 39 -150 83 l-142 80 0
173 0 174 38 -22 c20 -12 88 -51 150 -87z m510 -238 c-14 -13 -276 -165 -284
-165 -2 0 -4 76 -4 169 l0 169 148 86 147 85 3 -166 c2 -125 -1 -170 -10 -178z"/>
<path d="M2530 3423 c-38 -15 -726 -416 -737 -431 -10 -12 -13 -117 -13 -447
0 -330 3 -435 13 -447 22 -29 728 -428 756 -428 25 0 704 382 751 423 19 16
20 32 20 450 0 331 -3 437 -12 449 -14 17 -713 422 -744 431 -11 3 -26 3 -34
0z m307 -289 c158 -91 291 -169 295 -172 8 -8 -560 -337 -583 -337 -22 0 -589
329 -581 337 5 5 571 335 579 337 1 1 131 -74 290 -165z m-574 -489 l226 -130
1 -343 c0 -189 -4 -342 -8 -340 -4 2 -137 77 -295 168 l-287 165 0 343 0 344
68 -39 c37 -21 170 -96 295 -168z m937 -137 l-1 -343 -226 -130 c-125 -71
-258 -147 -295 -168 l-68 -39 0 344 0 343 292 168 c161 92 294 167 295 167 2
0 3 -154 3 -342z"/>
<path d="M1383 3224 c-27 -42 -4 -68 125 -143 110 -63 115 -64 140 -50 22 12
27 22 27 53 0 38 0 38 -110 102 -122 71 -156 78 -182 38z"/>
<path d="M3536 3187 c-115 -66 -134 -86 -117 -129 18 -47 52 -45 154 13 139
79 147 86 147 123 0 75 -44 74 -184 -7z"/>
<path d="M575 1955 c-121 -70 -226 -133 -232 -142 -10 -13 -13 -85 -13 -278 0
-237 2 -263 18 -277 32 -29 438 -258 456 -258 23 0 435 236 459 262 15 18 17
47 17 277 0 191 -3 261 -12 273 -14 17 -420 252 -453 262 -15 4 -82 -29 -240
-119z m428 -120 c48 -27 87 -53 87 -57 0 -11 -283 -169 -294 -165 -6 3 -73 41
-149 85 l-139 80 74 43 c40 23 106 62 147 85 l74 43 56 -32 c31 -18 96 -54
144 -82z m-407 -245 c75 -43 141 -83 146 -88 5 -5 7 -83 6 -175 l-3 -166 -147
85 -148 85 0 170 c0 93 2 169 4 169 2 0 66 -36 142 -80z m564 -89 l0 -169
-117 -67 c-65 -37 -133 -76 -150 -87 l-33 -20 0 174 1 173 142 82 c78 45 145
82 150 82 4 1 7 -75 7 -168z"/>
<path d="M4065 1954 c-121 -69 -226 -133 -232 -142 -10 -12 -13 -83 -13 -277
0 -237 2 -263 18 -277 33 -29 439 -258 457 -258 25 0 454 249 465 270 16 29
13 522 -2 542 -14 17 -420 252 -453 262 -15 4 -83 -30 -240 -120z m402 -104
c62 -36 113 -68 113 -72 0 -6 -276 -168 -286 -168 -2 0 -69 38 -150 84 l-145
84 68 40 c37 21 104 60 148 85 l80 46 30 -17 c16 -10 81 -47 142 -82z m-377
-261 c78 -45 144 -87 146 -93 3 -7 3 -85 2 -173 l-3 -162 -147 85 -148 86 0
169 c0 93 2 169 4 169 2 0 68 -37 146 -81z m560 -88 l0 -169 -112 -65 c-62
-36 -130 -75 -150 -87 l-38 -22 0 174 1 173 142 82 c78 44 145 82 150 82 4 1
7 -75 7 -168z"/>
<path d="M1493 2003 c-83 -49 -113 -72 -118 -91 -8 -33 19 -72 51 -72 25 0
232 113 246 134 13 19 9 64 -8 80 -25 26 -53 18 -171 -51z"/>
<path d="M3430 2050 c-44 -44 -27 -69 104 -145 115 -67 133 -73 167 -55 25 14
26 71 2 92 -31 26 -218 128 -236 128 -9 0 -26 -9 -37 -20z"/>
<path d="M1383 1204 c-15 -23 -15 -29 -2 -52 19 -34 502 -314 543 -315 50 -1
76 63 39 95 -43 38 -512 298 -536 298 -18 0 -32 -9 -44 -26z"/>
<path d="M3400 1089 c-135 -77 -253 -148 -262 -156 -36 -32 -9 -103 38 -103
14 0 514 286 533 305 17 17 18 60 1 80 -26 31 -66 14 -310 -126z"/>
<path d="M2315 943 c-121 -69 -223 -131 -227 -137 -10 -14 -10 -538 0 -552 4
-6 102 -66 218 -132 150 -87 220 -122 243 -122 23 0 91 34 234 116 111 64 210
123 220 132 15 14 17 40 17 282 0 242 -2 268 -17 282 -29 25 -438 258 -454
258 -8 0 -113 -57 -234 -127z m384 -88 c78 -44 141 -82 141 -85 0 -3 -66 -42
-146 -88 l-145 -83 -144 83 c-80 46 -145 85 -145 88 0 7 284 170 292 167 4 -1
70 -38 147 -82z m-209 -527 c0 -92 -3 -168 -6 -168 -3 0 -71 37 -150 83 l-144
82 0 172 0 172 150 -86 150 -87 0 -168z m420 170 l-1 -173 -140 -80 c-77 -44
-144 -82 -149 -83 -6 -2 -10 62 -10 166 l0 169 148 86 c81 47 148 86 150 86 1
1 2 -77 2 -171z"/>
</g>
</svg>
