<?xml version="1.0" standalone="no"?>
<!DOCTYPE svg PUBLIC "-//W3C//DTD SVG 20010904//EN"
 "http://www.w3.org/TR/2001/REC-SVG-20010904/DTD/svg10.dtd">
<svg version="1.0" xmlns="http://www.w3.org/2000/svg"
 width="512.000000pt" height="512.000000pt" viewBox="0 0 512.000000 512.000000"
 preserveAspectRatio="xMidYMid meet">

<g transform="translate(0.000000,512.000000) scale(0.100000,-0.100000)"
fill="#000000" stroke="none">
<path d="M1998 4944 c-419 -76 -778 -342 -971 -721 -55 -109 -113 -271 -123
-347 l-6 -42 -77 -17 c-236 -53 -463 -239 -576 -470 -69 -143 -88 -241 -82
-417 6 -168 19 -226 82 -357 87 -178 230 -321 408 -408 175 -84 111 -79 1020
-82 l807 -4 0 -43 c0 -39 -3 -45 -30 -56 -33 -14 -95 -77 -112 -116 l-11 -24
-704 0 c-830 0 -743 16 -743 -140 l0 -100 -272 0 c-304 0 -321 -3 -385 -71
-63 -66 -63 -69 -63 -489 0 -420 0 -423 63 -489 61 -64 89 -71 305 -71 l192 0
0 -80 0 -80 -80 0 -80 0 0 -80 0 -80 400 0 400 0 0 80 0 80 -80 0 -80 0 0 80
0 80 193 0 c215 0 243 7 304 71 63 66 63 69 63 489 0 420 0 423 -63 489 -64
68 -81 71 -384 71 l-273 0 0 40 0 40 643 -1 642 0 30 -47 c17 -26 51 -60 77
-77 44 -28 47 -33 47 -72 l1 -43 -112 0 c-128 0 -171 -14 -225 -71 -64 -67
-63 -61 -63 -569 0 -508 -1 -502 63 -569 65 -69 77 -71 417 -71 340 0 352 2
417 71 64 67 63 61 63 569 0 508 1 502 -63 569 -54 57 -97 71 -224 71 l-113 0
1 43 c0 39 3 44 47 72 26 17 61 51 77 77 l30 47 643 0 642 1 0 -120 0 -120
-232 0 c-260 0 -282 -5 -345 -71 -61 -65 -63 -76 -63 -419 0 -303 0 -310 -20
-310 -11 0 -29 -9 -40 -20 -18 -18 -20 -33 -20 -150 0 -146 10 -182 63 -239
70 -73 39 -71 735 -71 686 0 662 -2 731 63 59 57 71 95 71 245 0 119 -2 134
-20 152 -11 11 -29 20 -40 20 -20 0 -20 7 -20 310 0 343 -2 354 -63 419 -63
66 -85 71 -344 71 l-233 0 0 180 c0 167 -1 181 -20 200 -20 20 -34 20 -722 21
l-703 0 -30 47 c-16 26 -51 61 -77 77 -44 28 -47 33 -47 73 l-1 42 784 0 783
0 95 24 c322 82 568 334 643 659 65 284 -18 590 -218 803 -108 116 -270 213
-414 248 l-69 17 -16 81 c-55 265 -262 481 -526 549 -89 23 -258 26 -342 6
l-55 -13 -40 48 c-174 212 -492 390 -790 442 -112 20 -369 20 -477 0z m427
-166 c181 -27 377 -110 525 -222 79 -60 146 -125 247 -240 40 -46 43 -48 85
-43 23 3 68 12 98 21 66 20 195 22 265 6 129 -32 254 -117 328 -226 58 -86 86
-164 97 -274 8 -73 13 -88 35 -107 14 -13 38 -23 53 -23 53 0 158 -31 237 -70
151 -73 263 -188 335 -344 51 -110 65 -172 65 -296 0 -121 -14 -185 -61 -288
-73 -160 -187 -279 -339 -352 -166 -81 -22 -75 -1830 -75 -1808 0 -1664 -6
-1830 75 -186 90 -326 259 -381 460 -25 89 -25 271 0 360 75 272 299 476 575
524 45 8 91 22 101 31 12 11 23 43 30 88 44 264 157 478 349 667 278 272 632
386 1016 328z m185 -2968 c11 -11 20 -33 20 -50 0 -17 -9 -39 -20 -50 -11 -11
-33 -20 -50 -20 -17 0 -39 9 -50 20 -11 11 -20 33 -20 50 0 17 9 39 20 50 11
11 33 20 50 20 17 0 39 -9 50 -20z m-1066 -384 c50 -21 56 -51 56 -272 l0
-194 -640 0 -640 0 0 194 c0 218 7 251 54 272 46 20 1122 20 1170 0z m1276
-157 c58 -21 60 -34 60 -469 0 -435 -2 -448 -60 -469 -45 -15 -475 -15 -520 0
-58 21 -60 34 -60 467 0 264 4 399 11 422 19 54 45 59 305 60 148 0 243 -4
264 -11z m1844 -3 c52 -22 56 -46 56 -352 l0 -274 -560 0 -560 0 0 274 c0 303
4 330 54 352 46 20 962 20 1010 0z m-3064 -500 c0 -58 -20 -97 -56 -112 -44
-18 -1112 -21 -1164 -3 -37 13 -60 57 -60 114 l0 35 640 0 640 0 0 -34z m-560
-366 l0 -80 -80 0 -80 0 0 80 0 80 80 0 80 0 0 -80z m3760 46 c0 -58 -20 -97
-56 -112 -44 -18 -1112 -21 -1164 -3 -37 13 -60 57 -60 114 l0 35 640 0 640 0
0 -34z"/>
<path d="M2326 4144 c-219 -40 -461 -158 -617 -303 l-60 -56 59 -58 59 -59 81
65 c240 194 504 278 804 256 223 -17 429 -102 620 -256 l81 -65 59 59 59 58
-60 56 c-160 148 -399 264 -625 304 -111 19 -351 19 -460 -1z"/>
<path d="M2356 3824 c-169 -37 -372 -145 -460 -243 l-20 -22 59 -59 59 -59 35
30 c159 134 336 200 531 200 194 0 374 -68 531 -200 l35 -30 59 59 59 59 -20
22 c-71 80 -251 183 -389 225 -78 23 -111 27 -250 30 -118 3 -178 -1 -229 -12z"/>
<path d="M2398 3504 c-74 -17 -180 -71 -247 -124 l-53 -42 63 -64 62 -63 33
29 c84 73 186 110 304 110 118 0 220 -37 304 -110 l33 -29 62 63 63 64 -53 42
c-70 55 -174 107 -251 125 -78 18 -244 18 -320 -1z"/>
<path d="M2455 3181 c-87 -40 -135 -120 -135 -223 1 -142 97 -238 240 -238
144 0 240 96 240 240 0 104 -53 187 -142 224 -52 22 -153 20 -203 -3z m155
-171 c11 -11 20 -33 20 -50 0 -17 -9 -39 -20 -50 -11 -11 -33 -20 -50 -20 -17
0 -39 9 -50 20 -11 11 -20 33 -20 50 0 17 9 39 20 50 11 11 33 20 50 20 17 0
39 -9 50 -20z"/>
<path d="M2400 480 l0 -80 160 0 160 0 0 80 0 80 -160 0 -160 0 0 -80z"/>
</g>
</svg>
