<?xml version="1.0" standalone="no"?>
<!DOCTYPE svg PUBLIC "-//W3C//DTD SVG 20010904//EN"
 "http://www.w3.org/TR/2001/REC-SVG-20010904/DTD/svg10.dtd">
<svg version="1.0" xmlns="http://www.w3.org/2000/svg"
 width="512.000000pt" height="512.000000pt" viewBox="0 0 512.000000 512.000000"
 preserveAspectRatio="xMidYMid meet">

<g transform="translate(0.000000,512.000000) scale(0.100000,-0.100000)"
fill="#000000" stroke="none">
<path d="M215 5021 c-22 -10 -54 -34 -72 -52 -68 -72 -63 73 -63 -1849 0
-1922 -5 -1777 63 -1849 18 -18 50 -42 72 -52 38 -18 96 -19 1393 -19 l1352 0
0 -92 c0 -68 5 -104 19 -133 23 -51 75 -102 126 -125 77 -34 100 -89 71 -174
-38 -111 -13 -198 84 -296 99 -99 190 -123 305 -81 77 28 132 3 165 -75 22
-51 73 -102 125 -125 57 -26 233 -26 290 0 52 23 103 74 125 125 34 80 87 103
170 73 66 -23 146 -20 205 8 51 25 145 119 170 170 27 57 31 133 10 199 -29
92 -7 145 75 179 46 18 98 71 121 122 26 57 26 233 0 290 -23 51 -75 102 -126
125 -77 34 -100 89 -71 174 33 98 14 186 -59 272 l-45 52 0 1489 c0 1428 -1
1490 -19 1528 -23 49 -74 99 -123 119 -33 14 -267 16 -2180 16 -2066 0 -2144
-1 -2183 -19z m4285 -152 c58 -21 60 -37 60 -434 l0 -355 -2160 0 -2160 0 0
354 c0 388 3 409 54 432 26 11 381 13 2102 14 1520 0 2080 -3 2104 -11z m60
-1929 l0 -980 -35 0 c-19 0 -56 -7 -81 -16 -85 -29 -141 -6 -174 72 -22 51
-73 102 -125 125 -57 26 -233 26 -290 0 -52 -23 -103 -74 -125 -125 -33 -78
-89 -101 -174 -72 -111 38 -198 13 -296 -84 -97 -98 -122 -185 -84 -296 18
-54 13 -107 -13 -136 -9 -10 -39 -30 -66 -43 l-49 -25 -1359 0 c-1496 0 -1415
-3 -1438 60 -8 24 -11 372 -11 1266 l0 1234 2160 0 2160 0 0 -980z m-473 -962
c9 -7 25 -32 35 -55 29 -65 66 -103 133 -134 70 -34 168 -39 228 -14 56 23 74
19 128 -32 59 -55 67 -79 44 -140 -26 -68 -22 -150 11 -223 30 -67 72 -109
136 -138 63 -28 73 -44 73 -122 0 -77 -10 -94 -71 -120 -132 -57 -201 -226
-149 -363 23 -61 15 -85 -44 -140 -54 -51 -72 -55 -128 -32 -60 25 -158 20
-228 -14 -67 -31 -104 -69 -133 -134 -28 -62 -45 -72 -122 -72 -77 0 -94 10
-122 72 -29 65 -66 103 -133 134 -70 34 -168 39 -228 14 -56 -23 -74 -19 -128
32 -59 55 -67 79 -44 140 26 68 22 150 -11 223 -30 67 -72 109 -136 138 -63
28 -73 44 -73 122 0 79 8 91 84 130 69 34 92 59 125 130 30 65 35 166 11 223
-24 58 -19 76 38 134 58 57 76 62 134 38 60 -25 158 -20 228 14 67 31 104 69
133 134 20 45 36 62 67 70 32 9 125 -1 142 -15z"/>
<path d="M400 4480 l0 -240 240 0 240 0 0 240 0 240 -240 0 -240 0 0 -240z
m320 0 l0 -80 -80 0 -80 0 0 80 0 80 80 0 80 0 0 -80z"/>
<path d="M1040 4480 l0 -240 240 0 240 0 0 240 0 240 -240 0 -240 0 0 -240z
m320 0 l0 -80 -80 0 -80 0 0 80 0 80 80 0 80 0 0 -80z"/>
<path d="M1680 4480 l0 -240 240 0 240 0 0 240 0 240 -240 0 -240 0 0 -240z
m320 0 l0 -80 -80 0 -80 0 0 80 0 80 80 0 80 0 0 -80z"/>
<path d="M535 3741 c-22 -10 -54 -34 -72 -52 -66 -69 -63 -36 -63 -811 0 -785
-3 -744 71 -815 69 -65 46 -63 721 -63 l613 0 210 -141 c274 -183 272 -182
355 -177 76 4 121 28 161 86 21 30 24 50 27 134 l4 98 191 0 c215 0 243 7 304
71 66 69 63 37 63 809 0 772 3 740 -63 809 -18 18 -50 42 -72 52 -38 18 -92
19 -1225 19 -1133 0 -1187 -1 -1225 -19z m2365 -152 c61 -22 60 -12 60 -709 0
-697 1 -687 -60 -709 -21 -7 -118 -11 -266 -11 l-234 0 0 -129 c0 -143 -8
-181 -40 -181 -11 0 -125 70 -253 155 l-232 155 -611 0 c-430 0 -621 3 -644
11 -61 22 -60 12 -60 707 0 443 3 639 11 662 22 62 -35 59 1185 60 804 0 1120
-3 1144 -11z"/>
<path d="M1072 3419 c-108 -42 -180 -146 -196 -284 -4 -32 -15 -73 -24 -90
-22 -37 -77 -75 -108 -75 -23 0 -24 -2 -24 -90 0 -88 1 -90 24 -90 31 0 86
-38 108 -75 9 -17 20 -58 24 -90 19 -169 128 -289 275 -303 l49 -5 0 87 c0 83
-1 86 -22 86 -33 0 -85 35 -108 72 -10 17 -22 57 -25 87 -10 85 -32 144 -71
190 l-36 41 36 41 c39 46 61 105 71 190 3 30 15 70 25 87 23 37 75 72 108 72
21 0 22 4 22 85 l0 85 -37 -1 c-21 0 -62 -9 -91 -20z"/>
<path d="M1360 3360 l0 -80 400 0 400 0 0 80 0 80 -400 0 -400 0 0 -80z"/>
<path d="M2320 3355 c0 -81 1 -85 23 -85 32 0 84 -35 107 -72 10 -17 22 -57
25 -87 10 -85 32 -144 71 -190 l36 -41 -36 -41 c-39 -46 -61 -105 -71 -190 -3
-30 -15 -70 -25 -87 -23 -37 -75 -72 -107 -72 -22 0 -23 -4 -23 -85 l0 -85 35
0 c60 0 142 38 195 90 54 55 83 121 94 215 4 32 15 73 24 90 22 37 77 75 108
75 23 0 24 2 24 90 0 88 -1 90 -24 90 -31 0 -86 38 -108 75 -9 17 -20 58 -24
90 -11 94 -40 160 -94 215 -53 52 -135 90 -195 90 l-35 0 0 -85z"/>
<path d="M1360 3040 l0 -80 400 0 400 0 0 80 0 80 -400 0 -400 0 0 -80z"/>
<path d="M1360 2720 l0 -80 80 0 80 0 0 80 0 80 -80 0 -80 0 0 -80z"/>
<path d="M1680 2720 l0 -80 240 0 240 0 0 80 0 80 -240 0 -240 0 0 -80z"/>
<path d="M1360 2400 l0 -80 400 0 400 0 0 80 0 80 -400 0 -400 0 0 -80z"/>
<path d="M3280 3680 l0 -80 560 0 560 0 0 80 0 80 -560 0 -560 0 0 -80z"/>
<path d="M3280 3360 l0 -80 80 0 80 0 0 80 0 80 -80 0 -80 0 0 -80z"/>
<path d="M3600 3360 l0 -80 400 0 400 0 0 80 0 80 -400 0 -400 0 0 -80z"/>
<path d="M3280 3040 l0 -80 560 0 560 0 0 80 0 80 -560 0 -560 0 0 -80z"/>
<path d="M3280 2720 l0 -80 160 0 160 0 0 80 0 80 -160 0 -160 0 0 -80z"/>
<path d="M3760 2720 l0 -80 80 0 80 0 0 80 0 80 -80 0 -80 0 0 -80z"/>
<path d="M4080 2720 l0 -80 160 0 160 0 0 80 0 80 -160 0 -160 0 0 -80z"/>
<path d="M3280 2400 l0 -80 560 0 560 0 0 80 0 80 -560 0 -560 0 0 -80z"/>
<path d="M560 1600 l0 -80 80 0 80 0 0 80 0 80 -80 0 -80 0 0 -80z"/>
<path d="M880 1600 l0 -80 80 0 80 0 0 80 0 80 -80 0 -80 0 0 -80z"/>
<path d="M1200 1600 l0 -80 80 0 80 0 0 80 0 80 -80 0 -80 0 0 -80z"/>
<path d="M1520 1600 l0 -80 80 0 80 0 0 80 0 80 -80 0 -80 0 0 -80z"/>
<path d="M3996 1669 c-8 -36 -156 -1071 -156 -1090 0 -12 19 -18 83 -26 45 -6
82 -11 83 -10 0 1 36 250 79 552 43 303 80 555 82 561 6 16 -13 21 -95 30 -69
6 -71 6 -76 -17z"/>
<path d="M3545 1270 l-150 -150 153 -152 152 -153 62 63 63 62 -90 90 -90 90
90 90 89 90 -59 60 c-33 33 -62 60 -65 60 -3 0 -73 -68 -155 -150z"/>
<path d="M4235 1360 l-59 -60 89 -90 90 -90 -90 -90 -90 -90 63 -62 62 -63
152 153 153 152 -150 150 c-82 82 -152 150 -155 150 -3 0 -32 -27 -65 -60z"/>
</g>
</svg>
