<?xml version="1.0" standalone="no"?>
<!DOCTYPE svg PUBLIC "-//W3C//DTD SVG 20010904//EN"
 "http://www.w3.org/TR/2001/REC-SVG-20010904/DTD/svg10.dtd">
<svg version="1.0" xmlns="http://www.w3.org/2000/svg"
 width="512.000000pt" height="512.000000pt" viewBox="0 0 512.000000 512.000000"
 preserveAspectRatio="xMidYMid meet">

<g transform="translate(0.000000,512.000000) scale(0.100000,-0.100000)"
fill="#000000" stroke="none">
<path d="M3840 5014 c-155 -94 -332 -161 -502 -189 -51 -9 -193 -19 -315 -22
l-223 -6 0 -89 c0 -48 -2 -88 -5 -88 -3 0 -50 23 -105 50 l-100 50 -653 0
-652 0 -45 62 c-84 115 -220 205 -365 243 -78 20 -240 20 -319 -1 -218 -56
-404 -242 -460 -460 -21 -81 -21 -247 0 -328 57 -220 248 -410 465 -461 83
-19 238 -19 314 0 145 38 281 128 365 243 l45 62 277 0 278 0 0 -107 c0 -90 3
-113 20 -141 36 -59 71 -72 193 -72 l107 0 0 80 0 80 -80 0 -80 0 0 80 0 80
240 0 240 0 0 -80 0 -80 -80 0 -80 0 0 -80 0 -80 108 0 c121 0 156 13 192 72
17 28 20 51 20 153 l0 121 75 37 c42 20 78 37 80 37 3 0 5 -84 5 -187 1 -132
6 -218 18 -290 l18 -103 -1156 -2 -1155 -3 -60 -29 c-77 -38 -153 -114 -191
-191 l-29 -60 -3 -1217 -2 -1218 -81 0 -80 0 3 -257 3 -258 29 -60 c38 -77
114 -153 191 -191 l60 -29 1875 0 1875 0 60 29 c77 38 153 114 191 191 l29 60
3 258 3 257 -80 0 -81 0 0 863 1 862 57 33 c77 44 174 117 261 198 237 219
405 533 461 859 18 106 20 162 20 609 l0 493 -222 6 c-247 7 -362 22 -502 67
-123 40 -191 70 -303 136 -51 30 -93 54 -95 53 -2 0 -37 -20 -78 -45z m-2981
-163 c115 -36 217 -121 281 -235 l32 -56 679 0 679 0 135 -67 c120 -60 135
-70 135 -93 0 -23 -15 -33 -135 -93 l-135 -67 -679 0 -679 0 -32 -56 c-91
-162 -243 -254 -420 -254 -171 0 -325 90 -412 240 -78 134 -78 326 0 460 58
101 163 186 270 221 78 24 202 25 281 0z m3181 -53 c229 -113 375 -148 648
-155 l192 -5 0 -312 c-1 -345 -10 -523 -35 -638 -81 -387 -325 -725 -662 -918
-96 -55 -231 -113 -263 -113 -32 0 -167 58 -263 113 -336 192 -583 533 -662
915 -25 119 -34 294 -35 643 l0 312 153 0 c276 0 522 61 742 184 33 18 62 33
65 32 3 -1 57 -27 120 -58z m-1126 -1425 c15 -38 29 -74 33 -80 4 -10 -227
-13 -1138 -13 -1124 0 -1145 0 -1177 -20 -18 -11 -41 -34 -52 -52 -20 -32 -20
-53 -20 -1048 0 -995 0 -1016 20 -1048 11 -18 34 -41 52 -52 33 -20 54 -20
1608 -20 1554 0 1575 0 1608 20 18 11 41 34 52 52 19 32 20 52 20 694 l0 661
73 27 c39 14 75 26 80 26 4 0 7 -369 7 -820 l0 -820 -1840 0 -1840 0 2 1183
c3 1114 4 1184 21 1222 34 76 104 132 182 146 22 3 544 7 1161 8 l1120 1 28
-67z m149 -282 c35 -59 147 -189 228 -265 101 -94 260 -202 380 -259 l89 -42
0 -662 0 -663 -1520 0 -1520 0 0 960 0 960 1163 0 1163 0 17 -29z m-1383
-2441 c0 -82 17 -130 63 -179 67 -70 68 -71 497 -71 429 0 430 1 497 71 46 49
63 97 63 179 l0 70 721 0 722 0 -5 -142 c-5 -165 -19 -210 -85 -269 -76 -69
63 -64 -1913 -64 -1976 0 -1837 -5 -1913 64 -66 59 -80 104 -85 269 l-5 142
722 0 721 0 0 -70z m960 36 c0 -58 -20 -97 -56 -112 -43 -18 -633 -20 -684 -3
-37 13 -60 57 -60 114 l0 35 400 0 400 0 0 -34z"/>
<path d="M535 4621 c-87 -40 -135 -120 -135 -223 1 -142 97 -238 240 -238 144
0 240 96 240 240 0 104 -53 187 -142 224 -52 22 -153 20 -203 -3z m155 -171
c43 -43 11 -120 -50 -120 -38 0 -70 32 -70 70 0 38 32 70 70 70 17 0 39 -9 50
-20z"/>
<path d="M3827 4646 c-159 -78 -380 -139 -547 -151 -41 -3 -94 -8 -117 -11
l-43 -5 0 -323 c0 -356 8 -431 60 -588 80 -238 250 -467 450 -608 80 -56 262
-150 290 -150 9 0 61 22 116 49 324 160 556 443 651 799 26 95 27 106 31 459
l4 362 -44 5 c-24 3 -77 8 -118 11 -170 14 -377 71 -549 151 -51 24 -94 44
-95 43 0 0 -41 -20 -89 -43z m217 -201 c98 -41 317 -99 411 -110 33 -3 71 -8
84 -11 l24 -5 -6 -237 c-7 -243 -18 -330 -58 -452 -81 -245 -267 -467 -500
-598 -31 -18 -65 -32 -76 -32 -28 0 -126 54 -208 115 -169 125 -309 318 -374
515 -40 122 -51 209 -58 448 -7 259 -8 251 57 252 95 1 424 89 517 140 48 25
75 22 187 -25z"/>
<path d="M3783 4301 c-105 -39 -180 -107 -231 -211 -25 -50 -27 -65 -27 -170
0 -108 2 -119 30 -174 17 -33 51 -82 78 -109 l47 -48 0 -155 0 -154 240 0 240
0 0 154 0 155 48 48 c26 27 61 76 77 109 28 55 30 66 30 174 0 107 -2 119 -29
175 -38 77 -114 153 -191 190 -52 26 -73 30 -160 33 -79 2 -111 -2 -152 -17z
m225 -167 c148 -61 190 -257 79 -372 -18 -19 -44 -40 -59 -48 l-28 -15 0 -129
0 -130 -80 0 -80 0 0 130 0 129 -27 15 c-138 72 -165 267 -52 372 19 18 48 39
64 47 39 21 135 21 183 1z"/>
<path d="M880 2880 l0 -80 80 0 80 0 0 80 0 80 -80 0 -80 0 0 -80z"/>
<path d="M1608 2941 c-145 -47 -269 -174 -312 -320 -23 -79 -21 -217 4 -292
23 -69 59 -130 102 -175 l29 -31 -60 -23 c-154 -57 -324 -211 -404 -368 -49
-95 -81 -196 -95 -304 l-9 -68 897 0 897 0 -9 68 c-40 305 -226 559 -494 672
l-64 27 21 19 c36 31 86 117 108 182 26 76 28 214 5 293 -43 148 -168 274
-315 320 -81 25 -222 25 -301 0z m290 -180 c54 -28 115 -88 144 -143 19 -36
23 -58 23 -138 0 -109 -17 -152 -85 -220 -68 -68 -111 -85 -220 -85 -80 0
-102 4 -138 23 -55 30 -115 90 -143 144 -27 52 -36 164 -20 225 24 90 116 186
205 213 54 17 186 6 234 -19z m73 -782 c30 -6 96 -31 148 -56 145 -69 260
-195 320 -350 l21 -53 -700 0 -700 0 21 53 c34 89 81 159 155 232 104 104 232
166 380 185 83 11 281 5 355 -11z"/>
<path d="M880 2560 l0 -80 80 0 80 0 0 80 0 80 -80 0 -80 0 0 -80z"/>
<path d="M2800 2400 l0 -80 400 0 400 0 0 80 0 80 -400 0 -400 0 0 -80z"/>
<path d="M880 2240 l0 -80 80 0 80 0 0 80 0 80 -80 0 -80 0 0 -80z"/>
<path d="M2800 2080 l0 -80 400 0 400 0 0 80 0 80 -400 0 -400 0 0 -80z"/>
<path d="M2800 1760 l0 -80 400 0 400 0 0 80 0 80 -400 0 -400 0 0 -80z"/>
<path d="M2800 1440 l0 -80 240 0 240 0 0 80 0 80 -240 0 -240 0 0 -80z"/>
<path d="M3440 1440 l0 -80 80 0 80 0 0 80 0 80 -80 0 -80 0 0 -80z"/>
</g>
</svg>
