<?xml version="1.0" standalone="no"?>
<!DOCTYPE svg PUBLIC "-//W3C//DTD SVG 20010904//EN"
 "http://www.w3.org/TR/2001/REC-SVG-20010904/DTD/svg10.dtd">
<svg version="1.0" xmlns="http://www.w3.org/2000/svg"
 width="512.000000pt" height="512.000000pt" viewBox="0 0 512.000000 512.000000"
 preserveAspectRatio="xMidYMid meet">

<g transform="translate(0.000000,512.000000) scale(0.100000,-0.100000)"
fill="#000000" stroke="none">
<path d="M4004 5039 c-295 -28 -551 -247 -624 -535 -27 -104 -27 -263 -1 -366
22 -85 67 -180 118 -250 l35 -48 -486 0 -486 0 0 420 c0 407 -1 421 -20 440
-19 19 -33 20 -220 20 -187 0 -201 -1 -220 -20 -19 -19 -20 -33 -20 -440 l0
-420 -40 0 -40 0 0 580 c0 567 0 580 -20 600 -19 19 -33 20 -220 20 -187 0
-201 -1 -220 -20 -20 -20 -20 -33 -20 -600 l0 -580 -40 0 -40 0 0 300 c0 287
-1 301 -20 320 -19 19 -33 20 -220 20 -187 0 -201 -1 -220 -20 -19 -19 -20
-33 -20 -320 l0 -300 -315 0 c-294 0 -318 -1 -370 -21 -74 -28 -146 -100 -174
-174 -21 -55 -21 -63 -21 -1325 0 -1257 0 -1270 21 -1324 25 -67 86 -133 154
-166 l50 -25 869 -3 c683 -2 867 -5 863 -15 -2 -6 -26 -78 -53 -160 l-48 -147
-148 0 c-190 0 -188 2 -188 -140 l0 -100 -420 0 c-407 0 -421 -1 -440 -20 -27
-27 -27 -93 0 -120 20 -20 33 -20 1820 -20 1787 0 1800 0 1820 20 27 27 27 93
0 120 -19 19 -33 20 -440 20 l-420 0 0 100 c0 142 2 140 -188 140 l-148 0 -48
148 c-27 81 -51 153 -53 160 -4 9 170 12 851 12 839 0 856 0 910 21 67 25 133
86 166 154 l25 50 3 1282 c2 1280 2 1282 -19 1338 -46 123 -160 195 -310 195
l-81 0 35 48 c93 127 137 266 137 432 0 208 -65 365 -210 511 -69 69 -102 94
-177 131 -132 66 -262 91 -409 77z m-2164 -1079 l0 -920 -80 0 -80 0 0 920 0
920 80 0 80 0 0 -920z m2160 657 l0 -252 -184 -184 -184 -184 -26 40 c-54 81
-70 147 -71 278 0 146 17 206 87 312 73 109 190 194 315 228 26 7 51 14 56 14
4 1 7 -113 7 -252z m260 226 c176 -57 318 -220 364 -415 l6 -28 -235 0 -235 0
0 235 0 235 28 -6 c15 -4 47 -13 72 -21z m-1860 -1043 l0 -760 -80 0 -80 0 0
760 0 760 80 0 80 0 0 -760z m-1120 -120 l0 -640 -80 0 -80 0 0 640 0 640 80
0 80 0 0 -640z m3344 533 c-41 -176 -153 -318 -309 -392 -86 -41 -157 -54
-266 -49 -102 5 -185 29 -252 74 l-40 26 184 184 184 184 253 0 252 0 -6 -27z
m-3664 -853 l0 -320 -40 0 -40 0 0 260 c0 247 -1 261 -20 280 -19 19 -33 20
-220 20 -187 0 -201 -1 -220 -20 -19 -19 -20 -33 -20 -340 0 -307 1 -321 20
-340 20 -20 33 -20 1340 -20 1307 0 1320 0 1340 20 19 19 20 33 20 340 0 307
-1 321 -20 340 -19 19 -33 20 -220 20 -187 0 -201 -1 -220 -20 -19 -19 -20
-33 -20 -280 l0 -260 -40 0 -40 0 0 320 0 320 590 0 c577 0 592 0 631 -21 156
-79 443 -79 600 1 39 20 54 22 208 18 144 -3 170 -6 200 -23 44 -26 70 -62 81
-111 6 -22 10 -488 10 -1071 l0 -1033 -2320 0 -2320 0 2 1058 c3 1036 3 1058
23 1091 25 42 62 71 106 81 19 4 159 8 312 9 l277 1 0 -320z m560 0 l0 -320
-40 0 -40 0 0 320 0 320 40 0 40 0 0 -320z m560 0 l0 -320 -40 0 -40 0 0 320
0 320 40 0 40 0 0 -320z m-1360 -120 l0 -200 -80 0 -80 0 0 200 0 200 80 0 80
0 0 -200z m2240 0 l0 -200 -80 0 -80 0 0 200 0 200 80 0 80 0 0 -200z m1918
-2059 c-7 -136 -40 -190 -134 -211 -52 -13 -4316 -13 -4368 0 -94 21 -127 75
-134 211 l-5 99 2323 0 2323 0 -5 -99z m-1934 -528 c27 -82 51 -154 53 -160 4
-10 -87 -13 -437 -13 -350 0 -441 3 -437 13 2 6 26 78 53 160 l48 147 336 0
336 0 48 -147z m416 -373 l0 -40 -800 0 -800 0 0 40 0 40 800 0 800 0 0 -40z"/>
<path d="M3538 3342 c-174 -174 -178 -178 -178 -220 0 -56 26 -82 82 -82 40 0
46 5 203 160 l161 160 357 0 c344 0 358 1 377 20 13 13 20 33 20 60 0 27 -7
47 -20 60 -19 19 -33 20 -422 20 l-402 0 -178 -178z"/>
<path d="M420 2780 c-13 -13 -20 -33 -20 -60 0 -27 7 -47 20 -60 19 -19 33
-20 500 -20 467 0 481 1 500 20 13 13 20 33 20 60 0 27 -7 47 -20 60 -19 19
-33 20 -500 20 -467 0 -481 -1 -500 -20z"/>
<path d="M1540 2780 c-13 -13 -20 -33 -20 -60 0 -64 24 -80 120 -80 96 0 120
16 120 80 0 64 -24 80 -120 80 -67 0 -83 -3 -100 -20z"/>
<path d="M3095 2701 c-51 -23 -110 -88 -125 -138 -11 -35 -50 -66 -429 -350
l-416 -312 -35 34 c-48 46 -98 65 -172 65 -79 0 -131 -23 -181 -79 l-38 -42
-407 169 c-407 169 -407 170 -425 208 -45 95 -123 144 -227 144 -143 0 -242
-99 -242 -240 0 -141 99 -240 242 -240 81 0 132 22 183 79 l38 42 407 -169
c407 -169 407 -170 425 -208 26 -53 74 -103 122 -125 53 -25 156 -25 210 0 51
23 110 88 125 138 11 35 50 66 429 350 l416 312 35 -34 c47 -46 97 -65 170
-65 75 0 123 19 175 70 l40 38 410 -239 c409 -239 410 -239 431 -287 42 -93
120 -142 224 -142 143 0 239 96 240 238 0 145 -95 241 -238 242 -76 0 -124
-19 -177 -70 l-40 -38 -410 239 c-409 239 -410 239 -431 287 -25 55 -74 105
-126 126 -51 22 -153 20 -203 -3z m155 -171 c11 -11 20 -33 20 -50 0 -17 -9
-39 -20 -50 -11 -11 -33 -20 -50 -20 -17 0 -39 9 -50 20 -11 11 -20 33 -20 50
0 17 9 39 20 50 11 11 33 20 50 20 17 0 39 -9 50 -20z m-2560 -320 c43 -43 11
-120 -50 -120 -38 0 -70 32 -70 70 0 38 32 70 70 70 17 0 39 -9 50 -20z m3840
-240 c11 -11 20 -33 20 -50 0 -17 -9 -39 -20 -50 -11 -11 -33 -20 -50 -20 -17
0 -39 9 -50 20 -11 11 -20 33 -20 50 0 17 9 39 20 50 11 11 33 20 50 20 17 0
39 -9 50 -20z m-2560 -160 c11 -11 20 -33 20 -50 0 -17 -9 -39 -20 -50 -11
-11 -33 -20 -50 -20 -17 0 -39 9 -50 20 -11 11 -20 33 -20 50 0 17 9 39 20 50
11 11 33 20 50 20 17 0 39 -9 50 -20z"/>
<path d="M3540 1900 c-13 -13 -20 -33 -20 -60 0 -27 7 -47 20 -60 18 -18 33
-20 180 -20 147 0 162 2 180 20 13 13 20 33 20 60 0 27 -7 47 -20 60 -18 18
-33 20 -180 20 -147 0 -162 -2 -180 -20z"/>
<path d="M3220 1660 c-13 -13 -20 -33 -20 -60 0 -27 7 -47 20 -60 19 -19 33
-20 340 -20 307 0 321 1 340 20 13 13 20 33 20 60 0 27 -7 47 -20 60 -19 19
-33 20 -340 20 -307 0 -321 -1 -340 -20z"/>
<path d="M420 1180 c-13 -13 -20 -33 -20 -60 0 -27 7 -47 20 -60 19 -19 33
-20 300 -20 267 0 281 1 300 20 27 27 27 93 0 120 -19 19 -33 20 -300 20 -267
0 -281 -1 -300 -20z"/>
<path d="M1140 1180 c-13 -13 -20 -33 -20 -60 0 -64 24 -80 120 -80 96 0 120
16 120 80 0 64 -24 80 -120 80 -67 0 -83 -3 -100 -20z"/>
</g>
</svg>
