<?xml version="1.0" standalone="no"?>
<!DOCTYPE svg PUBLIC "-//W3C//DTD SVG 20010904//EN"
 "http://www.w3.org/TR/2001/REC-SVG-20010904/DTD/svg10.dtd">
<svg version="1.0" xmlns="http://www.w3.org/2000/svg"
 width="512.000000pt" height="512.000000pt" viewBox="0 0 512.000000 512.000000"
 preserveAspectRatio="xMidYMid meet">

<g transform="translate(0.000000,512.000000) scale(0.100000,-0.100000)"
fill="#000000" stroke="none">
<path d="M1543 4941 c-104 -38 -180 -107 -231 -211 l-27 -55 -3 -894 -2 -894
-50 6 c-62 7 -120 37 -170 87 -61 61 -83 112 -88 206 -4 72 -1 89 21 138 17
36 48 77 87 114 51 49 60 63 60 93 0 74 -68 110 -133 70 -80 -49 -162 -161
-191 -260 -21 -71 -21 -211 0 -282 54 -185 245 -339 420 -339 l44 0 0 -240 0
-240 -33 0 -33 0 -19 96 c-10 53 -27 107 -37 119 -11 14 -47 33 -86 46 -37 12
-97 37 -134 55 -37 19 -78 34 -91 34 -13 0 -61 -24 -108 -54 l-84 -54 -47 45
-47 46 23 36 c13 20 37 58 55 85 17 28 31 60 31 73 0 13 -15 54 -34 91 -18 37
-37 78 -41 92 -23 75 -48 129 -63 135 -9 5 -60 18 -112 30 l-95 22 0 63 0 63
95 22 c52 12 103 25 112 30 15 6 40 60 63 135 4 14 23 55 41 92 19 37 34 78
34 91 0 14 -25 62 -55 108 l-54 84 46 47 46 47 36 -23 c20 -13 58 -37 85 -55
28 -17 60 -31 73 -31 13 0 54 15 91 34 37 18 97 43 135 55 72 24 94 40 102 74
26 108 55 254 55 272 0 12 -9 34 -21 49 -16 21 -29 26 -63 26 -60 0 -75 -21
-102 -147 -13 -58 -25 -107 -27 -108 -1 0 -39 -16 -84 -34 l-82 -33 -88 55
c-135 85 -138 85 -271 -45 -57 -57 -111 -117 -118 -135 -17 -40 -11 -58 57
-164 l51 -79 -33 -83 c-18 -45 -34 -83 -35 -85 -1 -2 -51 -15 -110 -28 -59
-13 -116 -32 -126 -41 -16 -14 -18 -35 -18 -193 0 -158 2 -179 18 -193 10 -9
67 -28 126 -41 59 -13 109 -26 110 -28 1 -2 17 -40 35 -85 l33 -82 -54 -88
c-31 -48 -58 -96 -61 -106 -12 -34 20 -82 125 -184 132 -129 139 -130 270 -47
l89 56 82 -33 c45 -18 83 -34 84 -34 2 -1 14 -50 27 -108 31 -142 36 -147 147
-147 l89 0 2 -817 3 -818 29 -60 c38 -77 114 -153 191 -191 l60 -29 995 0 995
0 60 29 c77 38 153 114 191 191 l29 60 3 894 2 894 50 -6 c62 -7 120 -37 170
-87 61 -61 83 -112 88 -206 4 -72 1 -89 -21 -137 -15 -34 -49 -79 -86 -115
-61 -61 -73 -89 -55 -137 10 -25 62 -47 95 -40 38 8 128 91 169 155 90 140 95
357 12 500 -79 136 -242 240 -378 240 l-44 0 0 240 0 240 33 0 33 0 19 -96
c10 -53 27 -107 37 -119 10 -14 46 -32 84 -45 37 -12 98 -37 135 -56 38 -19
79 -34 92 -34 13 0 61 24 108 54 l84 54 47 -45 47 -46 -23 -36 c-13 -20 -37
-58 -55 -85 -17 -28 -31 -60 -31 -73 0 -13 15 -54 34 -91 18 -37 43 -97 55
-135 24 -72 40 -94 74 -102 12 -3 58 -13 102 -23 l80 -18 0 -64 0 -64 -80 -18
c-44 -10 -90 -20 -102 -23 -34 -8 -50 -30 -74 -102 -12 -38 -37 -98 -55 -135
-19 -37 -34 -78 -34 -91 0 -13 24 -61 54 -108 l54 -84 -45 -47 -46 -47 -36 23
c-20 13 -58 37 -85 55 -28 17 -60 31 -73 31 -13 0 -54 -15 -92 -34 -37 -19
-98 -44 -133 -56 -36 -12 -74 -30 -83 -40 -16 -18 -75 -258 -75 -306 0 -12 9
-33 21 -48 16 -21 29 -26 63 -26 60 0 75 21 102 147 13 58 25 107 27 108 1 0
39 16 84 34 l82 33 89 -56 c132 -83 139 -82 270 46 57 57 111 117 118 135 17
40 10 62 -58 165 l-50 78 33 82 c18 46 34 84 35 86 1 2 50 14 109 27 60 14
116 32 127 41 16 15 18 35 18 194 0 159 -2 179 -18 194 -11 9 -67 27 -127 41
-59 13 -108 25 -109 27 -1 2 -17 40 -35 85 l-33 82 54 88 c31 48 58 96 61 106
12 34 -20 82 -125 185 -131 128 -138 129 -270 46 l-89 -56 -82 33 c-45 18 -83
34 -84 34 -2 1 -14 50 -27 108 -31 142 -36 147 -147 147 l-89 0 -2 818 -3 817
-29 60 c-38 77 -114 153 -191 191 l-60 29 -980 2 c-936 2 -982 2 -1032 -16z
m1987 -167 c54 -25 113 -87 131 -140 21 -58 21 -4090 0 -4148 -19 -56 -84
-122 -139 -143 -44 -17 -104 -18 -962 -18 -858 0 -918 1 -962 18 -55 21 -120
87 -139 143 -12 33 -14 368 -14 2074 0 2238 -5 2077 63 2152 42 46 82 69 137
79 22 4 445 6 940 5 890 -1 900 -1 945 -22z"/>
<path d="M2260 4620 c-13 -13 -20 -33 -20 -60 0 -27 7 -47 20 -60 19 -19 33
-20 300 -20 267 0 281 1 300 20 13 13 20 33 20 60 0 27 -7 47 -20 60 -19 19
-33 20 -300 20 -267 0 -281 -1 -300 -20z"/>
<path d="M1938 2782 c-177 -177 -178 -178 -178 -222 0 -44 1 -45 178 -222 174
-174 178 -178 220 -178 56 0 82 26 82 82 0 40 -5 46 -137 180 l-137 138 137
138 c132 134 137 140 137 180 0 56 -26 82 -82 82 -42 0 -46 -4 -220 -178z"/>
<path d="M2582 2942 c-21 -21 -182 -647 -182 -707 0 -48 29 -75 80 -75 25 0
47 7 58 18 21 21 182 647 182 707 0 48 -29 75 -80 75 -25 0 -47 -7 -58 -18z"/>
<path d="M2900 2940 c-14 -14 -20 -33 -20 -62 0 -40 5 -46 137 -180 l137 -138
-137 -138 c-132 -134 -137 -140 -137 -180 0 -56 26 -82 82 -82 42 0 46 4 220
178 177 177 178 178 178 222 0 44 -1 45 -178 222 -174 174 -178 178 -220 178
-29 0 -48 -6 -62 -20z"/>
<path d="M4180 4300 c-15 -15 -20 -33 -20 -69 0 -59 22 -81 81 -81 48 0 79 36
79 91 0 52 -27 79 -80 79 -27 0 -47 -7 -60 -20z"/>
<path d="M4180 3980 c-15 -15 -20 -33 -20 -69 0 -59 22 -81 81 -81 48 0 79 36
79 91 0 52 -27 79 -80 79 -27 0 -47 -7 -60 -20z"/>
<path d="M4180 3660 c-15 -15 -20 -33 -20 -69 0 -59 22 -81 81 -81 48 0 79 36
79 91 0 52 -27 79 -80 79 -27 0 -47 -7 -60 -20z"/>
<path d="M826 1599 c-22 -17 -26 -29 -26 -68 0 -52 16 -75 62 -86 53 -13 97
28 98 92 0 33 -5 46 -26 62 -15 12 -39 21 -54 21 -15 0 -39 -9 -54 -21z"/>
<path d="M826 1279 c-22 -17 -26 -29 -26 -68 0 -52 16 -75 62 -86 53 -13 97
28 98 92 0 33 -5 46 -26 62 -15 12 -39 21 -54 21 -15 0 -39 -9 -54 -21z"/>
<path d="M826 959 c-22 -17 -26 -29 -26 -68 0 -52 16 -75 62 -86 53 -13 97 28
98 92 0 33 -5 46 -26 62 -15 12 -39 21 -54 21 -15 0 -39 -9 -54 -21z"/>
</g>
</svg>
