<?xml version="1.0" standalone="no"?>
<!DOCTYPE svg PUBLIC "-//W3C//DTD SVG 20010904//EN"
 "http://www.w3.org/TR/2001/REC-SVG-20010904/DTD/svg10.dtd">
<svg version="1.0" xmlns="http://www.w3.org/2000/svg"
 width="512.000000pt" height="512.000000pt" viewBox="0 0 512.000000 512.000000"
 preserveAspectRatio="xMidYMid meet">

<g transform="translate(0.000000,512.000000) scale(0.100000,-0.100000)"
fill="#000000" stroke="none">
<path d="M914 5110 c-51 -16 -102 -80 -110 -138 l-6 -49 -65 -27 -65 -26 -29
25 c-43 36 -99 48 -151 34 -34 -9 -67 -34 -161 -128 -65 -64 -126 -129 -134
-145 -24 -46 -14 -133 21 -179 l28 -37 -27 -65 c-27 -62 -30 -65 -62 -65 -47
0 -107 -33 -132 -73 -19 -32 -21 -49 -21 -223 0 -171 2 -192 20 -222 27 -44
76 -72 126 -72 l41 0 28 -71 27 -70 -20 -22 c-11 -12 -25 -32 -31 -44 -16 -31
-14 -109 4 -147 22 -46 224 -242 268 -261 65 -27 129 -16 178 31 l26 25 54
-26 c30 -13 59 -25 65 -25 6 0 14 -22 18 -49 8 -59 39 -108 86 -132 30 -16 59
-19 208 -19 125 0 182 4 206 14 48 20 88 77 94 134 l4 47 67 26 c36 15 69 25
74 22 12 -7 9 -923 -4 -923 -8 0 -255 -90 -340 -125 -13 -5 -17 4 -21 53 -6
66 -23 105 -64 146 -64 63 -43 61 -575 64 -481 3 -486 3 -512 -18 -35 -28 -38
-89 -5 -120 21 -20 33 -20 488 -20 l467 0 21 -23 c22 -23 22 -28 22 -373 l0
-351 23 -21 c34 -32 89 -30 116 4 20 25 21 39 21 253 l0 226 188 72 c226 86
302 103 460 103 200 0 390 -49 610 -157 145 -72 489 -298 551 -363 114 -118
177 -314 151 -462 -30 -165 -138 -230 -293 -179 -61 20 -172 90 -728 452 -119
78 -153 86 -194 44 -27 -26 -31 -51 -15 -87 7 -14 145 -110 357 -248 405 -264
437 -283 523 -312 91 -31 225 -31 293 0 64 29 117 71 146 118 23 37 35 43 260
131 130 50 452 176 716 279 455 178 484 188 550 188 122 2 194 -55 203 -160 7
-79 -17 -132 -87 -196 -54 -49 -121 -82 -940 -463 -486 -226 -919 -425 -964
-443 -158 -64 -296 -88 -413 -71 -156 22 -284 79 -616 278 -329 196 -455 246
-655 258 l-103 6 0 234 0 234 -25 24 c-32 33 -78 33 -110 0 l-25 -24 0 -349 0
-349 -23 -21 c-23 -22 -25 -22 -484 -22 -451 0 -461 0 -487 -21 -34 -27 -37
-88 -4 -119 21 -20 32 -20 502 -20 445 0 484 2 521 19 81 37 124 100 133 194
l5 60 91 -6 c172 -11 271 -52 606 -253 212 -127 311 -179 422 -223 229 -90
445 -87 703 12 90 35 1769 812 1878 870 78 41 160 123 199 200 27 53 32 75 36
152 3 74 0 100 -17 146 -39 103 -141 190 -243 207 l-43 8 -5 466 c-5 440 -6
467 -24 487 -26 28 -88 29 -116 1 -19 -19 -20 -33 -20 -494 l0 -474 -32 -6
c-18 -4 -319 -118 -668 -255 l-635 -248 -3 31 c-14 182 -54 307 -137 431 -69
104 -114 143 -338 290 -285 187 -466 272 -699 331 -82 20 -137 27 -265 31
l-163 6 0 413 0 414 38 19 c20 11 87 70 148 133 89 90 114 122 123 156 16 56
5 107 -31 148 l-30 34 29 70 28 70 41 0 c79 0 142 63 151 153 l6 57 293 0 294
0 0 -367 c0 -522 -27 -488 385 -488 277 0 280 0 313 23 62 45 62 43 62 457 l0
375 493 0 492 0 36 -24 c70 -48 69 -41 69 -549 0 -444 0 -455 21 -481 26 -33
88 -37 119 -6 19 19 20 33 20 495 0 450 -1 477 -20 528 -26 70 -75 125 -141
162 l-54 30 -1192 3 -1193 2 0 43 c0 51 -34 123 -72 150 -14 11 -49 22 -76 25
l-49 4 -26 65 -25 66 28 38 c15 22 31 55 34 74 14 70 -5 101 -142 238 -109
108 -135 130 -171 138 -52 12 -109 -2 -149 -36 l-29 -24 -67 26 c-62 25 -66
28 -66 58 0 47 -40 117 -80 140 -31 18 -55 20 -205 22 -93 1 -184 -2 -201 -7z
m326 -213 c0 -81 15 -101 88 -122 31 -9 88 -32 125 -51 92 -46 120 -45 174 8
l43 43 97 -98 98 -97 -43 -43 c-53 -54 -54 -82 -8 -174 18 -37 41 -93 51 -123
24 -76 43 -90 121 -90 l64 0 0 -134 0 -134 -64 -4 c-81 -5 -98 -20 -127 -107
-12 -36 -35 -92 -50 -123 -40 -80 -38 -109 13 -164 l42 -45 -94 -94 -94 -94
-47 44 c-59 55 -77 56 -167 11 -37 -18 -97 -43 -135 -55 -38 -13 -71 -31 -77
-41 -6 -10 -10 -46 -10 -79 l0 -61 -140 0 -140 0 0 63 c0 35 -6 71 -12 80 -7
9 -49 30 -93 45 -44 16 -103 41 -132 55 -72 37 -95 35 -149 -15 l-45 -42 -92
90 c-50 49 -93 90 -96 92 -3 1 14 21 36 45 60 60 61 77 14 175 -23 46 -48 107
-57 138 -19 66 -47 84 -129 84 l-55 0 0 135 0 135 63 0 c79 0 102 15 122 82 8
27 33 90 55 138 46 100 45 118 -15 180 l-35 36 95 94 94 94 45 -42 c56 -51 84
-53 165 -13 32 17 87 39 122 51 90 31 99 41 99 115 0 34 3 65 7 68 3 4 66 7
140 7 l133 0 0 -63z m2160 -1317 l0 -350 -220 0 -220 0 0 350 0 350 220 0 220
0 0 -350z"/>
<path d="M963 4566 c-147 -36 -307 -163 -371 -296 -186 -381 83 -821 503 -821
110 -1 167 12 265 60 223 107 350 374 299 623 -42 204 -218 385 -420 433 -77
18 -204 18 -276 1z m297 -178 c269 -122 333 -460 126 -663 -236 -230 -627
-103 -688 223 -35 189 89 390 282 454 78 26 205 19 280 -14z"/>
<path d="M3776 2228 c-36 -33 -39 -85 -6 -118 19 -19 33 -20 278 -20 257 0
259 0 280 23 32 34 30 89 -4 116 -25 20 -39 21 -275 21 -243 0 -248 0 -273
-22z"/>
<path d="M3795 1941 c-33 -14 -47 -38 -47 -78 0 -26 6 -42 22 -55 20 -16 47
-18 281 -18 246 0 260 1 279 20 26 26 26 80 1 111 -19 24 -20 24 -268 26 -136
1 -257 -2 -268 -6z"/>
</g>
</svg>
