<?xml version="1.0" standalone="no"?>
<!DOCTYPE svg PUBLIC "-//W3C//DTD SVG 20010904//EN"
 "http://www.w3.org/TR/2001/REC-SVG-20010904/DTD/svg10.dtd">
<svg version="1.0" xmlns="http://www.w3.org/2000/svg"
 width="512.000000pt" height="512.000000pt" viewBox="0 0 512.000000 512.000000"
 preserveAspectRatio="xMidYMid meet">

<g transform="translate(0.000000,512.000000) scale(0.100000,-0.100000)"
fill="#000000" stroke="none">
<path d="M513 4856 c-103 -33 -194 -114 -241 -214 l-27 -57 0 -1670 0 -1670
29 -60 c56 -112 159 -191 281 -215 43 -8 367 -10 1157 -8 l1098 3 27 28 c37
37 40 105 5 139 l-23 23 -1118 5 -1118 5 -48 30 c-32 20 -56 45 -72 74 l-23
44 0 1274 0 1273 2120 0 2120 0 0 -1273 0 -1274 -23 -44 c-16 -29 -40 -54 -72
-74 l-48 -30 -249 -3 -248 -4 -25 -30 c-41 -49 -28 -126 26 -154 35 -18 449
-20 531 -3 118 25 220 105 274 214 l29 60 0 1670 0 1670 -32 66 c-39 80 -111
150 -191 187 l-57 27 -2020 2 c-1651 1 -2028 -1 -2062 -11z m1417 -491 l0
-305 -745 0 -745 0 0 225 c0 181 3 233 15 263 21 49 52 81 100 103 38 17 80
19 708 19 l667 0 0 -305z m2635 286 c48 -22 79 -54 100 -103 12 -30 15 -82 15
-263 l0 -225 -1275 0 -1275 0 0 305 0 305 1198 0 c1142 0 1199 -1 1237 -19z"/>
<path d="M740 4457 c-39 -19 -62 -75 -49 -120 14 -51 41 -67 114 -67 73 0 100
16 114 67 9 30 7 44 -7 73 -20 42 -53 60 -107 60 -22 0 -51 -6 -65 -13z"/>
<path d="M1130 4463 c-56 -20 -83 -89 -56 -141 22 -42 44 -52 114 -52 51 0 63
4 86 26 28 29 36 87 16 125 -21 39 -107 61 -160 42z"/>
<path d="M1491 4456 c-57 -32 -68 -111 -22 -157 27 -26 36 -29 94 -29 61 0 67
2 91 31 42 50 30 126 -25 155 -35 17 -106 18 -138 0z"/>
<path d="M2528 4454 c-55 -29 -65 -102 -22 -153 l26 -31 870 0 870 0 29 29
c47 47 33 132 -26 159 -19 9 -237 12 -873 12 -728 -1 -851 -3 -874 -16z"/>
<path d="M768 3670 c-51 -16 -94 -49 -118 -92 -23 -40 -25 -54 -28 -212 -4
-186 4 -241 45 -295 48 -62 84 -71 297 -71 220 0 256 10 304 83 l27 41 0 217
0 217 -31 39 c-59 73 -76 78 -284 80 -102 1 -197 -2 -212 -7z m332 -335 l0
-135 -135 0 -135 0 0 135 0 135 135 0 135 0 0 -135z"/>
<path d="M3330 3674 c-14 -2 -56 -9 -95 -15 -321 -52 -610 -271 -760 -574
-152 -307 -152 -645 0 -950 111 -224 306 -411 521 -500 38 -16 70 -29 72 -30
1 -1 -5 -211 -14 -466 -9 -255 -14 -496 -12 -535 9 -134 91 -255 217 -317 62
-30 72 -32 171 -32 88 1 113 4 155 23 107 49 189 144 220 256 16 55 16 89 1
530 -9 259 -16 487 -16 506 0 34 3 36 69 63 161 65 352 225 457 383 281 422
228 985 -126 1343 -152 153 -332 251 -545 297 -70 15 -268 26 -315 18z m298
-225 c164 -37 303 -119 429 -252 88 -93 150 -197 194 -325 33 -95 34 -101 34
-262 0 -161 -1 -168 -33 -260 -52 -150 -103 -231 -217 -345 -114 -114 -196
-166 -345 -216 -84 -29 -111 -33 -230 -37 -112 -3 -150 -1 -222 17 -252 60
-467 231 -586 466 -112 222 -115 499 -8 730 175 379 578 578 984 484z m-38
-1989 c1 -47 7 -253 14 -459 9 -248 10 -387 4 -410 -14 -52 -51 -96 -101 -120
-98 -47 -208 -3 -252 102 -14 34 -14 78 0 475 8 240 15 451 15 467 l0 30 160
0 160 0 0 -85z"/>
<path d="M3830 2943 c-8 -3 -140 -129 -292 -281 l-277 -276 -109 107 c-106
104 -110 107 -154 107 -63 0 -98 -35 -98 -98 0 -44 2 -47 122 -168 138 -140
174 -161 259 -151 28 4 65 15 82 26 18 11 159 148 315 304 l282 283 0 45 c0
73 -66 125 -130 102z"/>
<path d="M1571 3556 c-57 -32 -68 -111 -22 -157 l29 -29 371 0 c369 0 370 0
396 23 18 15 28 36 32 64 5 39 2 46 -30 78 l-35 35 -359 0 c-278 -1 -363 -4
-382 -14z"/>
<path d="M1553 3176 c-24 -21 -28 -32 -28 -76 0 -44 4 -55 28 -76 l28 -24 314
0 314 0 28 24 c24 21 28 32 28 76 0 44 -4 55 -28 76 l-28 24 -314 0 -314 0
-28 -24z"/>
<path d="M735 2833 c-52 -27 -85 -66 -100 -117 -18 -60 -21 -340 -4 -401 15
-52 82 -119 134 -134 61 -17 341 -14 401 4 53 15 91 49 118 103 15 28 17 62
14 236 -3 201 -3 203 -30 243 -49 74 -84 83 -309 83 -157 -1 -200 -4 -224 -17z
m365 -318 l0 -135 -135 0 -135 0 0 135 0 135 135 0 135 0 0 -135z"/>
<path d="M1549 2711 c-47 -47 -33 -132 26 -159 34 -16 514 -17 548 -1 28 13
57 58 57 89 0 29 -26 77 -49 90 -12 6 -123 10 -286 10 l-267 0 -29 -29z"/>
<path d="M1584 2370 c-65 -27 -83 -109 -35 -162 l29 -33 292 0 292 0 29 33
c39 44 39 90 0 134 l-29 33 -279 2 c-153 1 -288 -2 -299 -7z"/>
<path d="M768 2020 c-51 -16 -94 -49 -118 -92 -23 -40 -25 -54 -28 -212 -4
-186 4 -241 45 -295 48 -62 84 -71 297 -71 220 0 256 10 304 83 l27 41 0 217
0 217 -31 39 c-59 73 -76 78 -284 80 -102 1 -197 -2 -212 -7z m332 -330 l0
-140 -135 0 -135 0 0 135 0 134 88 4 c48 1 108 4 135 5 l47 2 0 -140z"/>
<path d="M1571 1906 c-57 -32 -68 -111 -22 -157 l29 -29 371 0 c369 0 370 0
396 23 18 15 28 36 32 64 5 39 2 46 -30 78 l-35 35 -359 0 c-278 -1 -363 -4
-382 -14z"/>
<path d="M1553 1526 c-24 -21 -28 -32 -28 -76 0 -44 4 -55 28 -76 l28 -24 549
0 549 0 28 24 c24 21 28 32 28 76 0 44 -4 55 -28 76 l-28 24 -549 0 -549 0
-28 -24z"/>
</g>
</svg>
