<?xml version="1.0" standalone="no"?>
<!DOCTYPE svg PUBLIC "-//W3C//DTD SVG 20010904//EN"
 "http://www.w3.org/TR/2001/REC-SVG-20010904/DTD/svg10.dtd">
<svg version="1.0" xmlns="http://www.w3.org/2000/svg"
 width="512.000000pt" height="512.000000pt" viewBox="0 0 512.000000 512.000000"
 preserveAspectRatio="xMidYMid meet">

<g transform="translate(0.000000,512.000000) scale(0.100000,-0.100000)"
fill="#000000" stroke="none">
<path d="M332 4863 c8 -10 124 -154 257 -320 l241 -303 130 0 130 0 241 303
c133 166 249 310 257 320 14 16 -16 17 -628 17 -612 0 -642 -1 -628 -17z"/>
<path d="M2230 4870 c-99 -13 -273 -46 -338 -65 l-52 -16 0 -88 0 -89 63 19
c346 105 769 106 1147 2 l65 -18 6 -75 c7 -94 34 -156 94 -214 108 -106 303
-117 418 -25 21 17 43 29 50 26 7 -3 50 -36 96 -73 158 -127 323 -309 431
-474 24 -36 44 -67 46 -68 4 -6 144 80 144 88 0 17 -121 188 -198 281 -98 117
-249 261 -359 343 l-83 61 0 72 c0 191 -130 323 -319 323 -87 0 -148 -21 -205
-72 l-46 -40 -47 16 c-81 26 -173 47 -288 67 -127 23 -502 34 -625 19z"/>
<path d="M240 4291 c0 -248 2 -451 5 -451 8 0 445 329 445 335 0 3 -101 132
-225 286 l-225 281 0 -451z"/>
<path d="M1455 4462 c-121 -151 -221 -279 -223 -283 -4 -9 437 -343 444 -336
2 2 3 204 2 449 l-3 444 -220 -274z"/>
<path d="M606 3922 l-210 -157 282 -3 c155 -1 409 -1 564 0 l282 3 -211 158
-210 157 -144 0 -144 -1 -209 -157z"/>
<path d="M2820 3665 l-32 -95 -41 -10 c-162 -41 -294 -93 -421 -167 l-80 -46
-83 42 c-46 22 -89 41 -96 41 -7 0 -95 -83 -197 -185 l-184 -185 44 -90 45
-91 -28 -47 c-75 -125 -151 -313 -187 -459 l-10 -41 -95 -32 -95 -32 0 -268 0
-268 95 -32 95 -32 10 -41 c37 -151 114 -337 195 -473 l19 -32 -42 -86 c-23
-48 -42 -90 -42 -94 0 -11 364 -372 375 -372 6 0 48 19 94 42 l83 42 32 -19
c136 -81 322 -158 473 -195 l41 -10 32 -95 32 -95 268 0 268 0 32 95 32 95 41
10 c146 36 335 113 458 186 l45 27 86 -41 c47 -23 89 -42 94 -42 14 0 374 364
374 377 0 7 -19 50 -41 96 l-42 84 41 69 c71 119 131 269 172 431 l10 41 95
32 95 32 0 268 0 268 -95 32 -95 32 -10 41 c-41 162 -101 312 -172 431 l-41
69 42 84 c22 46 41 89 41 96 0 7 -83 95 -185 197 l-185 184 -90 -44 -91 -45
-47 28 c-125 75 -313 151 -459 187 l-41 10 -32 95 -32 95 -268 0 -268 0 -32
-95z m430 -319 c248 -16 521 -130 736 -309 220 -182 378 -436 451 -724 26
-100 28 -122 28 -313 0 -190 -2 -213 -27 -313 -109 -430 -400 -770 -802 -938
-418 -174 -915 -121 -1284 138 -279 196 -465 468 -549 800 -26 100 -28 122
-28 313 0 191 2 213 28 313 127 502 509 884 1002 1003 100 24 277 44 335 38
14 -2 63 -5 110 -8z"/>
<path d="M3780 2780 c-20 -20 -20 -33 -20 -780 0 -747 0 -760 20 -780 13 -13
33 -20 60 -20 27 0 47 7 60 20 20 20 20 33 20 780 0 747 0 760 -20 780 -13 13
-33 20 -60 20 -27 0 -47 -7 -60 -20z"/>
<path d="M3550 2516 c-173 -129 -421 -226 -655 -257 l-95 -12 0 -247 0 -247
63 -7 c233 -26 467 -112 656 -240 l81 -55 0 549 c0 303 -1 550 -2 550 -2 0
-23 -16 -48 -34z"/>
<path d="M2455 2221 c-87 -40 -135 -120 -135 -223 0 -74 23 -129 71 -175 49
-46 97 -63 179 -63 l70 0 0 240 0 240 -72 0 c-50 0 -86 -6 -113 -19z"/>
<path d="M2662 1589 c3 -8 29 -99 59 -202 l53 -187 93 0 93 0 0 189 c0 170 -2
190 -17 196 -10 4 -78 10 -152 13 -113 4 -133 3 -129 -9z"/>
<path d="M419 3533 c-74 -165 -136 -393 -165 -603 -19 -142 -18 -438 2 -590
39 -299 162 -644 315 -880 21 -33 39 -64 39 -67 0 -4 -10 -27 -22 -52 -33 -68
-37 -187 -8 -264 29 -77 100 -148 175 -176 67 -25 173 -28 236 -6 24 9 48 14
54 12 5 -3 50 -35 100 -71 81 -61 245 -166 258 -166 8 0 77 132 77 147 0 7 -4
13 -9 13 -10 0 -233 148 -275 183 l-29 24 16 48 c24 68 22 171 -4 240 -28 74
-100 146 -174 174 -62 23 -174 28 -222 10 -25 -9 -30 -7 -51 18 -40 50 -178
337 -216 449 -77 235 -106 412 -106 664 0 318 53 564 185 861 l44 99 -95 0
-95 0 -30 -67z"/>
</g>
</svg>
