<?xml version="1.0" standalone="no"?>
<!DOCTYPE svg PUBLIC "-//W3C//DTD SVG 20010904//EN"
 "http://www.w3.org/TR/2001/REC-SVG-20010904/DTD/svg10.dtd">
<svg version="1.0" xmlns="http://www.w3.org/2000/svg"
 width="512.000000pt" height="512.000000pt" viewBox="0 0 512.000000 512.000000"
 preserveAspectRatio="xMidYMid meet">

<g transform="translate(0.000000,512.000000) scale(0.100000,-0.100000)"
fill="#000000" stroke="none">
<path d="M913 5099 c-17 -11 -41 -39 -52 -63 -20 -40 -21 -59 -21 -394 l0
-352 -327 0 c-206 0 -343 -4 -368 -11 -56 -15 -104 -54 -126 -103 -18 -39 -19
-98 -19 -1544 0 -1458 1 -1504 19 -1540 24 -47 56 -77 103 -97 33 -13 141 -15
864 -15 l827 0 -6 -192 c-4 -117 -12 -220 -22 -262 -20 -89 -66 -227 -104
-310 l-30 -66 -135 0 c-123 0 -138 -2 -156 -20 -27 -27 -27 -83 0 -110 20 -20
33 -20 1200 -20 1167 0 1180 0 1200 20 27 27 27 83 0 110 -18 18 -33 20 -155
20 l-135 0 -19 37 c-34 68 -92 235 -112 322 -15 62 -22 140 -26 279 l-6 192
307 0 307 0 24 25 c33 32 33 78 0 110 l-24 25 -1869 0 c-1439 0 -1871 3 -1880
12 -9 9 -12 69 -12 210 l0 198 2400 0 2400 0 0 -198 c0 -141 -3 -201 -12 -210
-9 -9 -106 -12 -375 -12 l-364 0 -24 -25 c-33 -32 -33 -78 0 -110 l24 -25 376
0 c316 0 381 2 413 15 47 20 79 50 103 97 18 36 19 82 19 1540 0 1446 -1 1505
-19 1544 -22 49 -70 88 -126 103 -25 7 -162 11 -367 11 l-328 0 0 352 c0 335
-1 354 -21 394 -11 24 -35 52 -53 64 -33 20 -41 20 -1647 20 -1608 0 -1614 0
-1646 -21z m3205 -1756 l2 -1623 -1560 0 -1560 0 0 305 0 306 -26 26 c-21 21
-32 24 -62 19 -72 -11 -72 -11 -72 -352 l0 -304 -150 0 -150 0 0 1006 c0 674
3 1012 10 1025 10 17 23 19 150 19 l140 0 0 -575 0 -576 25 -24 c34 -35 86
-34 114 1 21 27 21 28 21 1194 0 642 3 1170 7 1173 3 4 704 6 1557 5 l1551 -3
3 -1622z m-3278 688 l0 -99 -169 -4 -169 -3 -39 -31 c-21 -17 -47 -46 -58 -65
-20 -33 -20 -55 -23 -1071 l-2 -1038 -110 0 -110 0 0 1195 c0 1127 1 1195 18
1204 10 7 139 11 340 11 l322 0 0 -99z m4101 89 c19 -10 19 -34 19 -1205 l0
-1195 -110 0 -110 0 -2 1038 c-3 1134 1 1063 -60 1119 -47 44 -88 53 -248 53
l-150 0 0 100 0 100 321 0 c202 0 327 -4 340 -10z m-371 -369 c7 -13 10 -351
10 -1025 l0 -1006 -150 0 -150 0 0 1025 0 1025 140 0 c127 0 140 -2 150 -19z
m-1420 -2913 c0 -242 26 -392 103 -598 l34 -90 -727 0 -727 0 35 93 c75 200
102 356 102 595 l0 142 590 0 590 0 0 -142z"/>
<path d="M2817 4586 c-144 -39 -219 -180 -175 -328 6 -22 68 -113 140 -209 75
-99 127 -176 124 -184 -3 -8 -66 -95 -139 -193 -74 -98 -142 -193 -152 -211
-23 -46 -30 -131 -15 -186 16 -59 86 -137 142 -160 59 -24 152 -23 209 2 53
24 71 43 189 198 50 66 95 120 99 120 5 0 60 -67 123 -150 97 -127 122 -154
167 -177 66 -35 163 -38 226 -9 50 23 109 84 130 133 21 51 19 153 -4 203 -10
22 -87 129 -170 239 -99 130 -148 202 -142 210 5 6 65 86 134 177 106 141 127
175 138 223 40 180 -120 345 -296 306 -86 -19 -121 -47 -217 -173 -50 -65 -94
-115 -98 -110 -4 4 -42 54 -85 111 -79 104 -119 143 -165 160 -47 18 -115 21
-163 8z m116 -170 c10 -6 71 -81 136 -166 74 -98 127 -158 143 -164 49 -17 78
7 190 157 125 168 148 190 187 190 62 0 113 -61 94 -113 -5 -14 -76 -114 -156
-221 -117 -155 -147 -202 -147 -227 0 -25 36 -79 180 -270 200 -265 206 -278
151 -333 -34 -34 -84 -39 -117 -11 -11 9 -84 101 -162 203 -78 103 -148 189
-157 193 -36 13 -72 6 -97 -21 -14 -16 -79 -100 -145 -188 -66 -88 -127 -166
-136 -173 -9 -8 -33 -14 -53 -15 -29 -1 -42 5 -65 31 -50 56 -46 66 146 322
128 171 175 241 175 261 0 20 -42 83 -155 234 -127 168 -155 211 -155 238 1
74 79 114 143 73z"/>
<path d="M1385 4575 c-60 -23 -115 -72 -141 -129 l-24 -51 0 -415 c0 -453 3
-482 58 -584 37 -68 131 -167 206 -216 97 -64 199 -93 331 -93 94 0 122 4 190
27 193 66 328 193 387 363 23 67 23 73 23 498 0 421 0 431 -21 470 -51 94
-125 139 -229 140 -56 0 -81 -5 -120 -26 -56 -28 -109 -91 -125 -147 -6 -22
-10 -182 -10 -404 l0 -367 -25 -20 c-40 -31 -80 -36 -118 -14 l-32 19 -5 385
c-4 342 -7 388 -23 424 -23 51 -71 101 -122 127 -51 27 -147 33 -200 13z m143
-168 c39 -32 42 -64 42 -444 0 -420 -2 -410 85 -475 57 -43 134 -63 198 -53
91 16 188 88 207 156 6 19 10 189 10 396 0 389 2 403 51 429 41 21 65 17 101
-15 l33 -29 3 -377 c3 -419 -1 -456 -60 -548 -86 -135 -287 -224 -447 -198
-138 22 -282 124 -339 240 l-27 56 -3 409 c-3 442 -3 444 51 466 26 11 74 5
95 -13z"/>
<path d="M1246 2839 c-33 -26 -37 -88 -6 -119 20 -20 33 -20 1320 -20 1287 0
1300 0 1320 20 31 31 27 93 -6 119 -27 21 -27 21 -1314 21 -1287 0 -1287 0
-1314 -21z"/>
<path d="M1240 2530 c-26 -26 -26 -80 -1 -111 l19 -24 1302 0 1302 0 19 24
c25 31 25 85 -1 111 -20 20 -33 20 -1320 20 -1287 0 -1300 0 -1320 -20z"/>
<path d="M1246 2229 c-35 -27 -36 -86 -3 -117 l23 -22 1295 0 1296 0 21 23
c32 34 30 89 -4 116 -27 21 -27 21 -1314 21 -1287 0 -1287 0 -1314 -21z"/>
<path d="M2355 1405 c-16 -15 -25 -36 -25 -55 0 -19 9 -40 25 -55 24 -25 26
-25 205 -25 179 0 181 0 205 25 16 15 25 36 25 55 0 19 -9 40 -25 55 -24 25
-26 25 -205 25 -179 0 -181 0 -205 -25z"/>
</g>
</svg>
