<?xml version="1.0" standalone="no"?>
<!DOCTYPE svg PUBLIC "-//W3C//DTD SVG 20010904//EN"
 "http://www.w3.org/TR/2001/REC-SVG-20010904/DTD/svg10.dtd">
<svg version="1.0" xmlns="http://www.w3.org/2000/svg"
 width="512.000000pt" height="512.000000pt" viewBox="0 0 512.000000 512.000000"
 preserveAspectRatio="xMidYMid meet">

<g transform="translate(0.000000,512.000000) scale(0.100000,-0.100000)"
fill="#000000" stroke="none">
<path d="M1300 4940 c-19 -19 -20 -33 -20 -480 l0 -460 -472 0 c-528 0 -517 1
-585 -71 -67 -71 -63 31 -63 -1449 0 -1480 -4 -1378 63 -1449 18 -18 50 -42
72 -52 38 -18 83 -19 864 -19 l823 0 -5 -22 c-3 -13 -15 -85 -28 -161 l-22
-137 -61 0 c-34 0 -66 -4 -73 -8 -7 -4 -71 -86 -143 -182 -114 -152 -130 -178
-130 -212 0 -25 7 -45 20 -58 20 -20 33 -20 1020 -20 987 0 1000 0 1020 20 13
13 20 33 20 58 0 34 -16 60 -130 212 -72 96 -136 178 -143 182 -7 4 -39 8 -73
8 l-61 0 -22 138 c-13 75 -25 147 -28 160 l-5 22 823 0 c781 0 826 1 864 19
22 10 54 34 72 52 67 71 63 -31 63 1449 0 1480 4 1378 -63 1449 -68 72 -57 71
-584 71 l-473 0 0 460 c0 447 -1 461 -20 480 -20 20 -33 20 -1260 20 -1227 0
-1240 0 -1260 -20z m2380 -940 l0 -800 -1120 0 -1120 0 0 800 0 800 1120 0
1120 0 0 -800z m-2400 -540 c0 -367 1 -381 20 -400 20 -20 33 -20 1260 -20
1227 0 1240 0 1260 20 19 19 20 33 20 400 l0 380 434 0 c297 0 443 -4 466 -11
63 -22 60 30 60 -1154 l0 -1075 -2240 0 -2240 0 0 1074 c0 774 3 1082 11 1106
21 58 27 59 512 60 l437 0 0 -380z m3520 -2135 c0 -138 -12 -177 -60 -194 -47
-16 -4313 -16 -4360 0 -48 17 -60 56 -60 194 l0 115 2240 0 2240 0 0 -115z
m-1811 -502 c13 -76 25 -148 28 -160 l5 -23 -462 0 -462 0 5 23 c3 12 15 84
28 160 l22 137 407 0 407 0 22 -137z m303 -421 l56 -77 -394 -3 c-217 -1 -571
-1 -788 0 l-394 3 56 77 57 77 675 0 675 0 57 -77z"/>
<path d="M2715 4739 c-15 -41 -475 -1425 -475 -1431 0 -10 153 -59 161 -50 6
7 479 1421 479 1434 0 3 -30 16 -67 29 -38 12 -74 24 -80 27 -7 2 -15 -2 -18
-9z"/>
<path d="M1847 4292 l-247 -248 0 -44 0 -44 250 -251 250 -250 62 63 63 62
-210 210 -210 210 210 210 210 210 -60 60 c-33 33 -62 60 -65 60 -3 0 -117
-112 -253 -248z"/>
<path d="M2955 4480 l-60 -60 210 -210 210 -210 -210 -210 -210 -210 63 -62
62 -63 250 250 250 251 0 44 0 44 -247 248 c-136 136 -250 248 -253 248 -3 0
-32 -27 -65 -60z"/>
<path d="M500 2860 c-19 -19 -20 -33 -20 -220 0 -187 1 -201 20 -220 19 -19
33 -20 540 -20 603 0 560 -8 560 100 l0 60 320 0 320 0 0 -60 c0 -90 14 -100
140 -100 l100 0 0 -80 0 -80 -100 0 c-146 0 -140 10 -140 -240 0 -187 1 -201
20 -220 19 -19 33 -20 300 -20 267 0 281 1 300 20 19 19 20 33 20 220 0 250 6
240 -140 240 l-100 0 0 80 0 80 100 0 c126 0 140 10 140 100 l0 60 320 0 320
0 0 -60 c0 -108 -43 -100 560 -100 507 0 521 1 540 20 19 19 20 33 20 220 0
187 -1 201 -20 220 -19 19 -33 20 -540 20 -603 0 -560 8 -560 -100 l0 -60
-320 0 -320 0 0 60 c0 103 10 100 -320 100 -330 0 -320 3 -320 -100 l0 -60
-320 0 -320 0 0 60 c0 108 43 100 -560 100 -507 0 -521 -1 -540 -20z m940
-220 l0 -80 -400 0 -400 0 0 80 0 80 400 0 400 0 0 -80z m1280 0 l0 -80 -160
0 -160 0 0 80 0 80 160 0 160 0 0 -80z m1760 0 l0 -80 -400 0 -400 0 0 80 0
80 400 0 400 0 0 -80z m-1760 -640 l0 -80 -160 0 -160 0 0 80 0 80 160 0 160
0 0 -80z"/>
</g>
</svg>
